<?xml version="1.0" encoding="UTF-8" standalone="no"?>
<!-- Created with Inkscape (http://www.inkscape.org/) -->

<svg
   xmlns:dc="http://purl.org/dc/elements/1.1/"
   xmlns:cc="http://creativecommons.org/ns#"
   xmlns:rdf="http://www.w3.org/1999/02/22-rdf-syntax-ns#"
   xmlns:svg="http://www.w3.org/2000/svg"
   xmlns="http://www.w3.org/2000/svg"
   xmlns:sodipodi="http://sodipodi.sourceforge.net/DTD/sodipodi-0.dtd"
   xmlns:inkscape="http://www.inkscape.org/namespaces/inkscape"
   width="800"
   height="480"
   id="svg3216"
   version="1.1"
   inkscape:version="0.48.4 r9939"
   sodipodi:docname="board.svg">
  <defs
     id="defs3218" />
  <sodipodi:namedview
     id="base"
     pagecolor="#ffffff"
     bordercolor="#666666"
     borderopacity="1.0"
     inkscape:pageopacity="0.0"
     inkscape:pageshadow="2"
     inkscape:zoom="0.3"
     inkscape:cx="248.33333"
     inkscape:cy="581.1887"
     inkscape:current-layer="layer1"
     inkscape:document-units="px"
     showgrid="false"
     inkscape:window-width="1440"
     inkscape:window-height="875"
     inkscape:window-x="0"
     inkscape:window-y="0"
     inkscape:window-maximized="1" />
  <metadata
     id="metadata3221">
    <rdf:RDF>
      <cc:Work
         rdf:about="">
        <dc:format>image/svg+xml</dc:format>
        <dc:type
           rdf:resource="http://purl.org/dc/dcmitype/StillImage" />
        <dc:title />
      </cc:Work>
    </rdf:RDF>
  </metadata>
  <g
     id="layer1"
     inkscape:label="Layer 1"
     inkscape:groupmode="layer"
     transform="matrix(0.75878373,0,0,0.52918783,60.443766,1.4316686)">
    <rect
       transform="matrix(0,-1,1,0,0,0)"
       y="-79.431221"
       x="-503.04568"
       height="1049.3743"
       width="104.5148"
       id="rect3001-4"
       style="fill:#ffffff;stroke:#000000;stroke-width:5.86816359;stroke-linejoin:miter;stroke-miterlimit:4;stroke-opacity:0.98979594;stroke-dasharray:none;stroke-dashoffset:0" />
    <rect
       transform="matrix(0,-1,1,0,0,0)"
       y="-79.431221"
       x="-900.21704"
       height="85.466988"
       width="397.17136"
       id="rect3781-84"
       style="fill:#ffffff;stroke:#000000;stroke-width:5.61202383;stroke-linejoin:miter;stroke-miterlimit:4;stroke-opacity:0.98979594;stroke-dasharray:none;stroke-dashoffset:0" />
    <rect
       transform="matrix(0,-1,1,0,0,0)"
       y="7.2565227"
       x="-900.54688"
       height="85.466988"
       width="397.17136"
       id="rect3781-5-7"
       style="fill:#ffffff;stroke:#000000;stroke-width:5.61202383;stroke-linejoin:miter;stroke-miterlimit:4;stroke-opacity:0.98979594;stroke-dasharray:none;stroke-dashoffset:0" />
    <rect
       transform="matrix(0,-1,1,0,0,0)"
       y="95.165276"
       x="-900.54688"
       height="85.466988"
       width="397.17136"
       id="rect3781-2-8"
       style="fill:#ffffff;stroke:#000000;stroke-width:5.61202383;stroke-linejoin:miter;stroke-miterlimit:4;stroke-opacity:0.98979594;stroke-dasharray:none;stroke-dashoffset:0" />
    <rect
       transform="matrix(0,-1,1,0,0,0)"
       y="183.0742"
       x="-900.54688"
       height="85.466988"
       width="397.17136"
       id="rect3781-3-3"
       style="fill:#ffffff;stroke:#000000;stroke-width:5.61202383;stroke-linejoin:miter;stroke-miterlimit:4;stroke-opacity:0.98979594;stroke-dasharray:none;stroke-dashoffset:0" />
    <rect
       transform="matrix(0,-1,1,0,0,0)"
       y="270.98303"
       x="-900.54688"
       height="85.466988"
       width="397.17136"
       id="rect3781-1-07"
       style="fill:#ffffff;stroke:#000000;stroke-width:5.61202383;stroke-linejoin:miter;stroke-miterlimit:4;stroke-opacity:0.98979594;stroke-dasharray:none;stroke-dashoffset:0" />
    <rect
       transform="matrix(0,-1,1,0,0,0)"
       y="358.892"
       x="-900.54688"
       height="85.466988"
       width="397.17136"
       id="rect3781-6-36"
       style="fill:#ffffff;stroke:#000000;stroke-width:5.61202383;stroke-linejoin:miter;stroke-miterlimit:4;stroke-opacity:0.98979594;stroke-dasharray:none;stroke-dashoffset:0" />
    <rect
       transform="matrix(0,-1,1,0,0,0)"
       y="446.80106"
       x="-900.54688"
       height="85.466988"
       width="397.17136"
       id="rect3781-8-2"
       style="fill:#ffffff;stroke:#000000;stroke-width:5.61202383;stroke-linejoin:miter;stroke-miterlimit:4;stroke-opacity:0.98979594;stroke-dasharray:none;stroke-dashoffset:0" />
    <rect
       transform="matrix(0,-1,1,0,0,0)"
       y="532.26801"
       x="-900.54688"
       height="85.466988"
       width="397.17136"
       id="rect3781-82-6"
       style="fill:#ffffff;stroke:#000000;stroke-width:5.61202383;stroke-linejoin:miter;stroke-miterlimit:4;stroke-opacity:0.98979594;stroke-dasharray:none;stroke-dashoffset:0" />
    <rect
       transform="matrix(0,-1,1,0,0,0)"
       y="620.177"
       x="-900.54688"
       height="85.466988"
       width="397.17136"
       id="rect3781-7-2"
       style="fill:#ffffff;stroke:#000000;stroke-width:5.61202383;stroke-linejoin:miter;stroke-miterlimit:4;stroke-opacity:0.98979594;stroke-dasharray:none;stroke-dashoffset:0" />
    <rect
       transform="matrix(0,-1,1,0,0,0)"
       y="708.08575"
       x="-900.54688"
       height="85.466988"
       width="397.17136"
       id="rect3781-71-4"
       style="fill:#ffffff;stroke:#000000;stroke-width:5.61202383;stroke-linejoin:miter;stroke-miterlimit:4;stroke-opacity:0.98979594;stroke-dasharray:none;stroke-dashoffset:0" />
    <rect
       transform="matrix(0,-1,1,0,0,0)"
       y="795.99506"
       x="-900.54688"
       height="85.466988"
       width="397.17136"
       id="rect3781-26-9"
       style="fill:#ffffff;stroke:#000000;stroke-width:5.61202383;stroke-linejoin:miter;stroke-miterlimit:4;stroke-opacity:0.98979594;stroke-dasharray:none;stroke-dashoffset:0" />
    <rect
       transform="matrix(0,-1,1,0,0,0)"
       y="883.90369"
       x="-900.54688"
       height="85.466988"
       width="397.17136"
       id="rect3781-0-2"
       style="fill:#ffffff;stroke:#000000;stroke-width:5.61202383;stroke-linejoin:miter;stroke-miterlimit:4;stroke-opacity:0.98979594;stroke-dasharray:none;stroke-dashoffset:0" />
    <rect
       transform="matrix(0,-1,1,0,0,0)"
       y="-78.820778"
       x="-398.03644"
       height="85.466988"
       width="397.17136"
       id="rect3781-4-5"
       style="fill:#ffffff;stroke:#000000;stroke-width:5.61202383;stroke-linejoin:miter;stroke-miterlimit:4;stroke-opacity:0.98979594;stroke-dasharray:none;stroke-dashoffset:0" />
    <rect
       transform="matrix(0,-1,1,0,0,0)"
       y="7.866993"
       x="-398.36603"
       height="85.466988"
       width="397.17136"
       id="rect3781-5-9-3"
       style="fill:#ffffff;stroke:#000000;stroke-width:5.61202383;stroke-linejoin:miter;stroke-miterlimit:4;stroke-opacity:0.98979594;stroke-dasharray:none;stroke-dashoffset:0" />
    <rect
       transform="matrix(0,-1,1,0,0,0)"
       y="95.776009"
       x="-398.36603"
       height="85.466988"
       width="397.17136"
       id="rect3781-2-4-4"
       style="fill:#ffffff;stroke:#000000;stroke-width:5.61202383;stroke-linejoin:miter;stroke-miterlimit:4;stroke-opacity:0.98979594;stroke-dasharray:none;stroke-dashoffset:0" />
    <rect
       transform="matrix(0,-1,1,0,0,0)"
       y="183.68489"
       x="-398.36603"
       height="85.466988"
       width="397.17136"
       id="rect3781-3-6-9"
       style="fill:#ffffff;stroke:#000000;stroke-width:5.61202383;stroke-linejoin:miter;stroke-miterlimit:4;stroke-opacity:0.98979594;stroke-dasharray:none;stroke-dashoffset:0" />
    <rect
       transform="matrix(0,-1,1,0,0,0)"
       y="271.59381"
       x="-398.36603"
       height="85.466988"
       width="397.17136"
       id="rect3781-1-0-0"
       style="fill:#ffffff;stroke:#000000;stroke-width:5.61202383;stroke-linejoin:miter;stroke-miterlimit:4;stroke-opacity:0.98979594;stroke-dasharray:none;stroke-dashoffset:0" />
    <rect
       transform="matrix(0,-1,1,0,0,0)"
       y="359.50241"
       x="-398.36603"
       height="85.466988"
       width="397.17136"
       id="rect3781-6-3-6"
       style="fill:#ffffff;stroke:#000000;stroke-width:5.61202383;stroke-linejoin:miter;stroke-miterlimit:4;stroke-opacity:0.98979594;stroke-dasharray:none;stroke-dashoffset:0" />
    <rect
       transform="matrix(0,-1,1,0,0,0)"
       y="447.41144"
       x="-398.36603"
       height="85.466988"
       width="397.17136"
       id="rect3781-8-6-4"
       style="fill:#ffffff;stroke:#000000;stroke-width:5.61202383;stroke-linejoin:miter;stroke-miterlimit:4;stroke-opacity:0.98979594;stroke-dasharray:none;stroke-dashoffset:0" />
    <rect
       transform="matrix(0,-1,1,0,0,0)"
       y="532.8783"
       x="-398.36603"
       height="85.466988"
       width="397.17136"
       id="rect3781-82-2-7"
       style="fill:#ffffff;stroke:#000000;stroke-width:5.61202383;stroke-linejoin:miter;stroke-miterlimit:4;stroke-opacity:0.98979594;stroke-dasharray:none;stroke-dashoffset:0" />
    <rect
       transform="matrix(0,-1,1,0,0,0)"
       y="620.78735"
       x="-398.36603"
       height="85.466988"
       width="397.17136"
       id="rect3781-7-4-0"
       style="fill:#ffffff;stroke:#000000;stroke-width:5.61202383;stroke-linejoin:miter;stroke-miterlimit:4;stroke-opacity:0.98979594;stroke-dasharray:none;stroke-dashoffset:0" />
    <rect
       transform="matrix(0,-1,1,0,0,0)"
       y="708.69623"
       x="-398.36603"
       height="85.466988"
       width="397.17136"
       id="rect3781-71-5-7"
       style="fill:#ffffff;stroke:#000000;stroke-width:5.61202383;stroke-linejoin:miter;stroke-miterlimit:4;stroke-opacity:0.98979594;stroke-dasharray:none;stroke-dashoffset:0" />
    <rect
       transform="matrix(0,-1,1,0,0,0)"
       y="796.60547"
       x="-398.36603"
       height="85.466988"
       width="397.17136"
       id="rect3781-26-8-3"
       style="fill:#ffffff;stroke:#000000;stroke-width:5.61202383;stroke-linejoin:miter;stroke-miterlimit:4;stroke-opacity:0.98979594;stroke-dasharray:none;stroke-dashoffset:0" />
    <rect
       transform="matrix(0,-1,1,0,0,0)"
       y="884.51416"
       x="-398.36603"
       height="85.466988"
       width="397.17136"
       id="rect3781-0-8-3"
       style="fill:#ffffff;stroke:#000000;stroke-width:5.61202383;stroke-linejoin:miter;stroke-miterlimit:4;stroke-opacity:0.98979594;stroke-dasharray:none;stroke-dashoffset:0" />
    <path
       inkscape:connector-curvature="0"
       id="path4160-7"
       d="m -36.828253,897.13178 -39.044482,0 0,-193.82236 0,-193.82235 39.044482,0 39.044596,0 0,193.82235 0,193.82236 -39.044596,0 z"
       style="fill:#a05a2c;stroke:#000000;stroke-width:15.55529785;stroke-linejoin:miter;stroke-miterlimit:4;stroke-opacity:0.98979594;stroke-dasharray:none;stroke-dashoffset:0" />
    <path
       inkscape:connector-curvature="0"
       id="path4162-2"
       d="m 50.966847,897.16827 -39.070606,0 0,-193.85831 0,-193.85827 39.070606,0 39.070735,0 0,193.85827 0,193.85831 -39.070735,0 z"
       style="fill:#a05a2c;stroke:#000000;stroke-width:15.49412918;stroke-linejoin:miter;stroke-miterlimit:4;stroke-opacity:0.98979594;stroke-dasharray:none;stroke-dashoffset:0" />
    <path
       inkscape:connector-curvature="0"
       id="path4164-6"
       d="m 138.87567,897.16827 -39.070501,0 0,-193.85831 0,-193.85827 39.070501,0 39.07073,0 0,193.85827 0,193.85831 -39.07073,0 z"
       style="fill:#a05a2c;stroke:#000000;stroke-width:15.49412918;stroke-linejoin:miter;stroke-miterlimit:4;stroke-opacity:0.98979594;stroke-dasharray:none;stroke-dashoffset:0" />
    <path
       inkscape:connector-curvature="0"
       id="path4166-3"
       d="m 226.78461,897.16827 -39.07053,0 0,-193.85831 0,-193.85827 39.07053,0 39.07061,0 0,193.85827 0,193.85831 -39.07061,0 z"
       style="fill:#a05a2c;stroke:#000000;stroke-width:15.49412918;stroke-linejoin:miter;stroke-miterlimit:4;stroke-opacity:0.98979594;stroke-dasharray:none;stroke-dashoffset:0" />
    <path
       inkscape:connector-curvature="0"
       id="path4168-3"
       d="m 314.69363,897.16827 -39.07075,0 0,-193.85831 0,-193.85827 39.07075,0 39.07051,0 0,193.85827 0,193.85831 -39.07051,0 z"
       style="fill:#a05a2c;stroke:#000000;stroke-width:15.49412918;stroke-linejoin:miter;stroke-miterlimit:4;stroke-opacity:0.98979594;stroke-dasharray:none;stroke-dashoffset:0" />
    <path
       inkscape:connector-curvature="0"
       id="path4170-0"
       d="m 402.60232,897.16827 -39.07039,0 0,-193.85831 0,-193.85827 39.07039,0 39.07074,0 0,193.85827 0,193.85831 -39.07074,0 z"
       style="fill:#a05a2c;stroke:#000000;stroke-width:15.49412918;stroke-linejoin:miter;stroke-miterlimit:4;stroke-opacity:0.98979594;stroke-dasharray:none;stroke-dashoffset:0" />
    <path
       inkscape:connector-curvature="0"
       id="path4172-2"
       d="m 490.51126,897.16827 -39.07065,0 0,-193.85831 0,-193.85827 39.07065,0 39.0707,0 0,193.85827 0,193.85831 -39.0707,0 z"
       style="fill:#a05a2c;stroke:#000000;stroke-width:15.49412918;stroke-linejoin:miter;stroke-miterlimit:4;stroke-opacity:0.98979594;stroke-dasharray:none;stroke-dashoffset:0" />
    <path
       inkscape:connector-curvature="0"
       id="path4178-1"
       d="m 575.97829,897.16827 -39.07065,0 0,-193.85831 0,-193.85827 39.07065,0 39.07073,0 0,193.85827 0,193.85831 -39.07073,0 z"
       style="fill:#a05a2c;stroke:#000000;stroke-width:15.49412918;stroke-linejoin:miter;stroke-miterlimit:4;stroke-opacity:0.98979594;stroke-dasharray:none;stroke-dashoffset:0" />
    <path
       inkscape:connector-curvature="0"
       id="path4180-6"
       d="m 663.88718,897.16827 -39.07059,0 0,-193.85831 0,-193.85827 39.07059,0 39.07053,0 0,193.85827 0,193.85831 -39.07053,0 z"
       style="fill:#a05a2c;stroke:#000000;stroke-width:15.49412918;stroke-linejoin:miter;stroke-miterlimit:4;stroke-opacity:0.98979594;stroke-dasharray:none;stroke-dashoffset:0" />
    <path
       inkscape:connector-curvature="0"
       id="path4182-4"
       d="m 751.79602,897.16827 -39.07063,0 0,-193.85831 0,-193.85827 39.07063,0 39.07073,0 0,193.85827 0,193.85831 -39.07073,0 z"
       style="fill:#a05a2c;stroke:#000000;stroke-width:15.49412918;stroke-linejoin:miter;stroke-miterlimit:4;stroke-opacity:0.98979594;stroke-dasharray:none;stroke-dashoffset:0" />
    <path
       inkscape:connector-curvature="0"
       id="path4184-1"
       d="m 839.70492,897.16827 -39.07061,0 0,-193.85831 0,-193.85827 39.07061,0 39.07062,0 0,193.85827 0,193.85831 -39.07062,0 z"
       style="fill:#a05a2c;stroke:#000000;stroke-width:15.49412918;stroke-linejoin:miter;stroke-miterlimit:4;stroke-opacity:0.98979594;stroke-dasharray:none;stroke-dashoffset:0" />
    <path
       inkscape:connector-curvature="0"
       id="path4186-1"
       d="m 927.61399,897.16827 -39.07077,0 0,-193.85831 0,-193.85827 39.07077,0 39.0706,0 0,193.85827 0,193.85831 -39.0706,0 z"
       style="fill:#a05a2c;stroke:#000000;stroke-width:15.49412918;stroke-linejoin:miter;stroke-miterlimit:4;stroke-opacity:0.98979594;stroke-dasharray:none;stroke-dashoffset:0" />
    <path
       inkscape:connector-curvature="0"
       id="path4188-0"
       d="m 445.33596,499.33725 -521.348764,0 0,-47.20019 0,-47.20036 521.348764,0 521.34863,0 0,47.20036 0,47.20019 -521.34863,0 z"
       style="fill:#a05a2c;stroke:#000000;stroke-width:15.49412918;stroke-linejoin:miter;stroke-miterlimit:4;stroke-opacity:0.98979594;stroke-dasharray:none;stroke-dashoffset:0" />
    <path
       inkscape:connector-curvature="0"
       id="path4190-3"
       d="m 927.61399,394.8224 -39.07077,0 0,-193.85829 0,-193.8581755 39.07077,0 39.0706,0 0,193.8581755 0,193.85829 -39.0706,0 z"
       style="fill:#a05a2c;stroke:#000000;stroke-width:15.49412918;stroke-linejoin:miter;stroke-miterlimit:4;stroke-opacity:0.98979594;stroke-dasharray:none;stroke-dashoffset:0" />
    <path
       inkscape:connector-curvature="0"
       id="path4192-7"
       d="m 839.70492,394.8224 -39.07061,0 0,-193.85829 0,-193.8581755 39.07061,0 39.07062,0 0,193.8581755 0,193.85829 -39.07062,0 z"
       style="fill:#a05a2c;stroke:#000000;stroke-width:15.49412918;stroke-linejoin:miter;stroke-miterlimit:4;stroke-opacity:0.98979594;stroke-dasharray:none;stroke-dashoffset:0" />
    <path
       inkscape:connector-curvature="0"
       id="path4194-3"
       d="m 751.79602,394.8224 -39.07063,0 0,-193.85829 0,-193.8581755 39.07063,0 39.07073,0 0,193.8581755 0,193.85829 -39.07073,0 z"
       style="fill:#a05a2c;stroke:#000000;stroke-width:15.49412918;stroke-linejoin:miter;stroke-miterlimit:4;stroke-opacity:0.98979594;stroke-dasharray:none;stroke-dashoffset:0" />
    <path
       inkscape:connector-curvature="0"
       id="path4196-8"
       d="m 663.88718,394.8224 -39.07059,0 0,-193.85829 0,-193.8581755 39.07059,0 39.07053,0 0,193.8581755 0,193.85829 -39.07053,0 z"
       style="fill:#a05a2c;stroke:#000000;stroke-width:15.49412918;stroke-linejoin:miter;stroke-miterlimit:4;stroke-opacity:0.98979594;stroke-dasharray:none;stroke-dashoffset:0" />
    <path
       inkscape:connector-curvature="0"
       id="path4198-9"
       d="m 575.97829,394.8224 -39.07065,0 0,-193.85829 0,-193.8581755 39.07065,0 39.07073,0 0,193.8581755 0,193.85829 -39.07073,0 z"
       style="fill:#a05a2c;stroke:#000000;stroke-width:15.49412918;stroke-linejoin:miter;stroke-miterlimit:4;stroke-opacity:0.98979594;stroke-dasharray:none;stroke-dashoffset:0" />
    <path
       inkscape:connector-curvature="0"
       id="path4200-7"
       d="m 490.51126,394.8224 -39.07065,0 0,-193.85829 0,-193.8581755 39.07065,0 39.0707,0 0,193.8581755 0,193.85829 -39.0707,0 z"
       style="fill:#a05a2c;stroke:#000000;stroke-width:15.49412918;stroke-linejoin:miter;stroke-miterlimit:4;stroke-opacity:0.98979594;stroke-dasharray:none;stroke-dashoffset:0" />
    <path
       inkscape:connector-curvature="0"
       id="path4202-5"
       d="m 402.60232,394.8224 -39.07039,0 0,-193.85829 0,-193.8581755 39.07039,0 39.07074,0 0,193.8581755 0,193.85829 -39.07074,0 z"
       style="fill:#a05a2c;stroke:#000000;stroke-width:15.49412918;stroke-linejoin:miter;stroke-miterlimit:4;stroke-opacity:0.98979594;stroke-dasharray:none;stroke-dashoffset:0" />
    <path
       inkscape:connector-curvature="0"
       id="path4204-2"
       d="m 314.69363,394.8224 -39.07075,0 0,-193.85829 0,-193.8581755 39.07075,0 39.07051,0 0,193.8581755 0,193.85829 -39.07051,0 z"
       style="fill:#a05a2c;stroke:#000000;stroke-width:15.49412918;stroke-linejoin:miter;stroke-miterlimit:4;stroke-opacity:0.98979594;stroke-dasharray:none;stroke-dashoffset:0" />
    <path
       inkscape:connector-curvature="0"
       id="path4206-2"
       d="m 226.78461,394.8224 -39.07053,0 0,-193.85829 0,-193.8581755 39.07053,0 39.07061,0 0,193.8581755 0,193.85829 -39.07061,0 z"
       style="fill:#a05a2c;stroke:#000000;stroke-width:15.49412918;stroke-linejoin:miter;stroke-miterlimit:4;stroke-opacity:0.98979594;stroke-dasharray:none;stroke-dashoffset:0" />
    <path
       inkscape:connector-curvature="0"
       id="path4208-5"
       d="m 138.87567,394.8224 -39.070501,0 0,-193.85829 0,-193.8581755 39.070501,0 39.07073,0 0,193.8581755 0,193.85829 -39.07073,0 z"
       style="fill:#a05a2c;stroke:#000000;stroke-width:15.49412918;stroke-linejoin:miter;stroke-miterlimit:4;stroke-opacity:0.98979594;stroke-dasharray:none;stroke-dashoffset:0" />
    <path
       inkscape:connector-curvature="0"
       id="path4210-4"
       d="m 50.966847,394.8224 -39.070606,0 0,-193.85829 0,-193.8581755 39.070606,0 39.070735,0 0,193.8581755 0,193.85829 -39.070735,0 z"
       style="fill:#a05a2c;stroke:#000000;stroke-width:15.49412918;stroke-linejoin:miter;stroke-miterlimit:4;stroke-opacity:0.98979594;stroke-dasharray:none;stroke-dashoffset:0" />
    <path
       inkscape:connector-curvature="0"
       id="path4212-0"
       d="m -36.942063,391.45098 -39.070741,0 0,-192.17263 0,-192.1724155 39.070741,0 39.0707213,0 0,192.1724155 0,192.17263 -39.0707213,0 z"
       style="fill:#a05a2c;stroke:#000000;stroke-width:15.49412918;stroke-linejoin:miter;stroke-miterlimit:4;stroke-opacity:0.98979594;stroke-dasharray:none;stroke-dashoffset:0" />
  </g>
</svg>
