<?xml version="1.0" encoding="iso-8859-1"?>
<!-- Generator: Adobe Illustrator 16.0.0, SVG Export Plug-In . SVG Version: 6.00 Build 0)  -->
<!DOCTYPE svg PUBLIC "-//W3C//DTD SVG 1.1//EN" "http://www.w3.org/Graphics/SVG/1.1/DTD/svg11.dtd">
<svg version="1.1" id="Capa_1" xmlns="http://www.w3.org/2000/svg" xmlns:xlink="http://www.w3.org/1999/xlink" x="0px" y="0px"
	 width="26.99px" height="25.758px" viewBox="0 0 26.99 25.758" style="enable-background:new 0 0 26.99 25.758;"
	 xml:space="preserve">
<path style="fill:#000000;" d="M24.842,0H2.146C0.959,0,0,0.961,0,2.145v21.469c0,1.182,0.959,2.145,2.146,2.145h22.695
	c1.186,0,2.148-0.963,2.148-2.145V2.145C26.99,0.961,26.027,0,24.842,0z M13.494,14.91c-1.531,0-2.777-1.244-2.777-2.775
	c0-1.535,1.246-2.781,2.777-2.781c1.533,0,2.777,1.246,2.777,2.781C16.271,13.666,15.027,14.91,13.494,14.91z"/>
<g>
</g>
<g>
</g>
<g>
</g>
<g>
</g>
<g>
</g>
<g>
</g>
<g>
</g>
<g>
</g>
<g>
</g>
<g>
</g>
<g>
</g>
<g>
</g>
<g>
</g>
<g>
</g>
<g>
</g>
</svg>
