<?xml version="1.0" encoding="iso-8859-1"?>
<!-- Generator: Adobe Illustrator 16.0.0, SVG Export Plug-In . SVG Version: 6.00 Build 0)  -->
<!DOCTYPE svg PUBLIC "-//W3C//DTD SVG 1.1//EN" "http://www.w3.org/Graphics/SVG/1.1/DTD/svg11.dtd">
<svg version="1.1" id="Capa_1" xmlns="http://www.w3.org/2000/svg" xmlns:xlink="http://www.w3.org/1999/xlink" x="0px" y="0px"
	 width="25.758px" height="26.986px" viewBox="0 0 25.758 26.986" style="enable-background:new 0 0 25.758 26.986;"
	 xml:space="preserve">
<path style="fill:#000000;" d="M0,2.145V24.84c0,1.188,0.961,2.146,2.145,2.146h21.467c1.184,0,2.146-0.959,2.146-2.146V2.145
	C25.758,0.963,24.795,0,23.611,0H2.145C0.961,0,0,0.963,0,2.145z M8.164,20.82c0,1.533-1.244,2.779-2.777,2.779
	c-1.535,0-2.777-1.246-2.777-2.779c0-1.531,1.242-2.777,2.777-2.777C6.92,18.043,8.164,19.289,8.164,20.82z M23.082,5.596
	c0,1.535-1.246,2.779-2.779,2.779c-1.531,0-2.775-1.244-2.775-2.779c0-1.533,1.244-2.777,2.775-2.777
	C21.836,2.818,23.082,4.062,23.082,5.596z"/>
<g>
</g>
<g>
</g>
<g>
</g>
<g>
</g>
<g>
</g>
<g>
</g>
<g>
</g>
<g>
</g>
<g>
</g>
<g>
</g>
<g>
</g>
<g>
</g>
<g>
</g>
<g>
</g>
<g>
</g>
</svg>
