<?xml version="1.0" encoding="iso-8859-1"?>
<!-- Generator: Adobe Illustrator 16.0.0, SVG Export Plug-In . SVG Version: 6.00 Build 0)  -->
<!DOCTYPE svg PUBLIC "-//W3C//DTD SVG 1.1//EN" "http://www.w3.org/Graphics/SVG/1.1/DTD/svg11.dtd">
<svg version="1.1" id="Capa_1" xmlns="http://www.w3.org/2000/svg" xmlns:xlink="http://www.w3.org/1999/xlink" x="0px" y="0px"
	 width="25.758px" height="26.99px" viewBox="0 0 25.758 26.99" style="enable-background:new 0 0 25.758 26.99;"
	 xml:space="preserve">
<path style="fill:#000000;" d="M0,2.148v22.695c0,1.186,0.959,2.146,2.145,2.146h21.467c1.184,0,2.146-0.961,2.146-2.146V2.148
	C25.758,0.967,24.795,0,23.611,0H2.145C0.959,0,0,0.967,0,2.148z M8.162,20.824c0,1.531-1.242,2.779-2.777,2.779
	c-1.533,0-2.777-1.248-2.777-2.779c0-1.533,1.244-2.779,2.777-2.779C6.92,18.045,8.162,19.291,8.162,20.824z M23.08,5.598
	c0,1.535-1.242,2.777-2.777,2.777c-1.533,0-2.779-1.242-2.779-2.777c0-1.533,1.246-2.777,2.779-2.777
	C21.838,2.82,23.08,4.064,23.08,5.598z M15.654,13.496c0,1.535-1.242,2.779-2.777,2.779c-1.531,0-2.777-1.244-2.777-2.779
	c0-1.533,1.246-2.777,2.777-2.777C14.412,10.719,15.654,11.963,15.654,13.496z"/>
<g>
</g>
<g>
</g>
<g>
</g>
<g>
</g>
<g>
</g>
<g>
</g>
<g>
</g>
<g>
</g>
<g>
</g>
<g>
</g>
<g>
</g>
<g>
</g>
<g>
</g>
<g>
</g>
<g>
</g>
</svg>
