<?xml version="1.0" encoding="utf-8"?>
<!-- Generator: Adobe Illustrator 16.0.0, SVG Export Plug-In . SVG Version: 6.00 Build 0)  -->
<!DOCTYPE svg PUBLIC "-//W3C//DTD SVG 1.1//EN" "http://www.w3.org/Graphics/SVG/1.1/DTD/svg11.dtd">
<svg version="1.1" id="Layer_1" xmlns="http://www.w3.org/2000/svg" xmlns:xlink="http://www.w3.org/1999/xlink" x="0px" y="0px"
	 width="100px" height="100px" viewBox="0 0 100 100" enable-background="new 0 0 100 100" xml:space="preserve">
<g>
	<path d="M79.442,38.889c-0.012-0.182-0.047-0.361-0.111-0.549l-0.066-0.176c-0.11-0.244-0.246-0.447-0.419-0.619L57.64,16.338
		c-0.17-0.168-0.37-0.303-0.64-0.426c-0.044-0.018-0.087-0.033-0.159-0.057c-0.19-0.064-0.374-0.102-0.572-0.111l-0.106-0.016
		H42.152c-5.038,0-9.137,4.098-9.137,9.137v1.229h-4.944c-5.037,0-9.136,4.1-9.136,9.137v42.262c0,5.037,4.099,9.137,9.136,9.137
		h28.175c5.037,0,9.136-4.1,9.136-9.137v-1.23h4.943c5.038,0,9.137-4.098,9.137-9.137V39.029L79.442,38.889z M58.255,22.873
		l14.061,14.063h-9.111c-2.729,0-4.949-2.221-4.949-4.951V22.873z M61.196,77.492c0,2.73-2.221,4.951-4.95,4.951H28.071
		c-2.729,0-4.95-2.221-4.95-4.951V35.23c0-2.73,2.221-4.951,4.95-4.951h11.918v12.07c0,5.039,4.099,9.137,9.137,9.137h12.07V77.492z
		 M44.174,42.35V33.24l14.062,14.061h-9.11C46.395,47.301,44.174,45.08,44.174,42.35z M75.275,67.125c0,2.73-2.221,4.951-4.95,4.951
		h-4.943V49.393l-0.02-0.137c-0.012-0.182-0.046-0.355-0.11-0.547l-0.072-0.189c-0.111-0.242-0.246-0.439-0.41-0.604l-21.21-21.213
		c-0.168-0.166-0.369-0.301-0.585-0.398c-0.062-0.029-0.126-0.055-0.207-0.08c-0.185-0.064-0.373-0.102-0.547-0.111v0.004
		l-0.139-0.023h-4.881v-1.229c0-2.73,2.221-4.951,4.951-4.951H54.07v12.07c0,5.039,4.098,9.137,9.135,9.137h12.07V67.125z"/>
	<path d="M43.398,54.475c0-1.104-0.896-2-2-2s-2,0.896-2,2v7.172h-7.172c-1.104,0-2,0.896-2,2c0,1.105,0.896,2,2,2h7.172v7.172
		c0,1.105,0.896,2,2,2s2-0.895,2-2v-7.172h7.173c1.104,0,2-0.895,2-2c0-1.104-0.896-2-2-2h-7.173V54.475z"/>
</g>
</svg>
