<?xml version="1.0" encoding="UTF-8" standalone="no"?>
<!-- Created with Inkscape (http://www.inkscape.org/) -->

<svg
   xmlns:dc="http://purl.org/dc/elements/1.1/"
   xmlns:cc="http://creativecommons.org/ns#"
   xmlns:rdf="http://www.w3.org/1999/02/22-rdf-syntax-ns#"
   xmlns:svg="http://www.w3.org/2000/svg"
   xmlns="http://www.w3.org/2000/svg"
   xmlns:sodipodi="http://sodipodi.sourceforge.net/DTD/sodipodi-0.dtd"
   xmlns:inkscape="http://www.inkscape.org/namespaces/inkscape"
   width="720"
   height="220"
   id="svg3032"
   version="1.1"
   inkscape:version="0.48.4 r9939"
   sodipodi:docname="table.svg">
  <defs
     id="defs3034" />
  <sodipodi:namedview
     id="base"
     pagecolor="#ffffff"
     bordercolor="#666666"
     borderopacity="1.0"
     inkscape:pageopacity="0.0"
     inkscape:pageshadow="2"
     inkscape:zoom="1.4789491"
     inkscape:cx="220.05083"
     inkscape:cy="115.21749"
     inkscape:document-units="px"
     inkscape:current-layer="layer1"
     showgrid="false"
     inkscape:window-width="1440"
     inkscape:window-height="875"
     inkscape:window-x="0"
     inkscape:window-y="0"
     inkscape:window-maximized="1" />
  <metadata
     id="metadata3037">
    <rdf:RDF>
      <cc:Work
         rdf:about="">
        <dc:format>image/svg+xml</dc:format>
        <dc:type
           rdf:resource="http://purl.org/dc/dcmitype/StillImage" />
        <dc:title />
      </cc:Work>
    </rdf:RDF>
  </metadata>
  <g
     id="layer1"
     inkscape:label="Layer 1"
     inkscape:groupmode="layer">
    <rect
       transform="matrix(0,-1,1,0,0,0)"
       y="2.8386164"
       x="-217.51538"
       height="58.256046"
       width="216.8942"
       id="rect3781-84"
       style="fill:#ffffff;stroke:#000000;stroke-width:3.42393756;stroke-linejoin:miter;stroke-miterlimit:4;stroke-opacity:0.98979594;stroke-dasharray:none;stroke-dashoffset:0" />
    <rect
       transform="matrix(0,-1,1,0,0,0)"
       y="61.926754"
       x="-217.6955"
       height="58.256046"
       width="216.8942"
       id="rect3781-5-7"
       style="fill:#ffffff;stroke:#000000;stroke-width:3.42393756;stroke-linejoin:miter;stroke-miterlimit:4;stroke-opacity:0.98979594;stroke-dasharray:none;stroke-dashoffset:0" />
    <rect
       transform="matrix(0,-1,1,0,0,0)"
       y="121.84715"
       x="-217.6955"
       height="58.256046"
       width="216.8942"
       id="rect3781-2-8"
       style="fill:#ffffff;stroke:#000000;stroke-width:3.42393756;stroke-linejoin:miter;stroke-miterlimit:4;stroke-opacity:0.98979594;stroke-dasharray:none;stroke-dashoffset:0" />
    <rect
       transform="matrix(0,-1,1,0,0,0)"
       y="181.76767"
       x="-217.6955"
       height="58.256046"
       width="216.8942"
       id="rect3781-3-3"
       style="fill:#ffffff;stroke:#000000;stroke-width:3.42393756;stroke-linejoin:miter;stroke-miterlimit:4;stroke-opacity:0.98979594;stroke-dasharray:none;stroke-dashoffset:0" />
    <rect
       transform="matrix(0,-1,1,0,0,0)"
       y="241.6881"
       x="-217.6955"
       height="58.256046"
       width="216.8942"
       id="rect3781-1-07"
       style="fill:#ffffff;stroke:#000000;stroke-width:3.42393756;stroke-linejoin:miter;stroke-miterlimit:4;stroke-opacity:0.98979594;stroke-dasharray:none;stroke-dashoffset:0" />
    <rect
       transform="matrix(0,-1,1,0,0,0)"
       y="301.6087"
       x="-217.6955"
       height="58.256046"
       width="216.8942"
       id="rect3781-6-36"
       style="fill:#ffffff;stroke:#000000;stroke-width:3.42393756;stroke-linejoin:miter;stroke-miterlimit:4;stroke-opacity:0.98979594;stroke-dasharray:none;stroke-dashoffset:0" />
    <rect
       transform="matrix(0,-1,1,0,0,0)"
       y="361.52927"
       x="-217.6955"
       height="58.256046"
       width="216.8942"
       id="rect3781-8-2"
       style="fill:#ffffff;stroke:#000000;stroke-width:3.42393756;stroke-linejoin:miter;stroke-miterlimit:4;stroke-opacity:0.98979594;stroke-dasharray:none;stroke-dashoffset:0" />
    <rect
       transform="matrix(0,-1,1,0,0,0)"
       y="419.78528"
       x="-217.6955"
       height="58.256046"
       width="216.8942"
       id="rect3781-82-6"
       style="fill:#ffffff;stroke:#000000;stroke-width:3.42393756;stroke-linejoin:miter;stroke-miterlimit:4;stroke-opacity:0.98979594;stroke-dasharray:none;stroke-dashoffset:0" />
    <rect
       transform="matrix(0,-1,1,0,0,0)"
       y="479.7059"
       x="-217.6955"
       height="58.256046"
       width="216.8942"
       id="rect3781-7-2"
       style="fill:#ffffff;stroke:#000000;stroke-width:3.42393756;stroke-linejoin:miter;stroke-miterlimit:4;stroke-opacity:0.98979594;stroke-dasharray:none;stroke-dashoffset:0" />
    <rect
       transform="matrix(0,-1,1,0,0,0)"
       y="539.62622"
       x="-217.6955"
       height="58.256046"
       width="216.8942"
       id="rect3781-71-4"
       style="fill:#ffffff;stroke:#000000;stroke-width:3.42393756;stroke-linejoin:miter;stroke-miterlimit:4;stroke-opacity:0.98979594;stroke-dasharray:none;stroke-dashoffset:0" />
    <rect
       transform="matrix(0,-1,1,0,0,0)"
       y="599.547"
       x="-217.6955"
       height="58.256046"
       width="216.8942"
       id="rect3781-26-9"
       style="fill:#ffffff;stroke:#000000;stroke-width:3.42393756;stroke-linejoin:miter;stroke-miterlimit:4;stroke-opacity:0.98979594;stroke-dasharray:none;stroke-dashoffset:0" />
    <rect
       transform="matrix(0,-1,1,0,0,0)"
       y="659.46735"
       x="-217.6955"
       height="58.256046"
       width="216.8942"
       id="rect3781-0-2"
       style="fill:#ffffff;stroke:#000000;stroke-width:3.42393756;stroke-linejoin:miter;stroke-miterlimit:4;stroke-opacity:0.98979594;stroke-dasharray:none;stroke-dashoffset:0" />
    <path
       inkscape:connector-curvature="0"
       id="path4160-7"
       d="m 31.87767,215.83052 -26.6135161,0 0,-105.84586 0,-105.8458443 26.6135161,0 26.613595,0 0,105.8458443 0,105.84586 -26.613595,0 z"
       style="fill:#a05a2c;stroke:#000000;stroke-width:9.49040222;stroke-linejoin:miter;stroke-miterlimit:4;stroke-opacity:0.98979594;stroke-dasharray:none;stroke-dashoffset:0" />
    <path
       inkscape:connector-curvature="0"
       id="path4162-2"
       d="m 91.7206,215.85045 -26.631319,0 0,-105.86549 0,-105.8654624 26.631319,0 26.63141,0 0,105.8654624 0,105.86549 -26.63141,0 z"
       style="fill:#a05a2c;stroke:#000000;stroke-width:9.45308304;stroke-linejoin:miter;stroke-miterlimit:4;stroke-opacity:0.98979594;stroke-dasharray:none;stroke-dashoffset:0" />
    <path
       inkscape:connector-curvature="0"
       id="path4164-6"
       d="m 151.64105,215.85045 -26.63126,0 0,-105.86549 0,-105.8654624 26.63126,0 26.63141,0 0,105.8654624 0,105.86549 -26.63141,0 z"
       style="fill:#a05a2c;stroke:#000000;stroke-width:9.45308304;stroke-linejoin:miter;stroke-miterlimit:4;stroke-opacity:0.98979594;stroke-dasharray:none;stroke-dashoffset:0" />
    <path
       inkscape:connector-curvature="0"
       id="path4166-3"
       d="m 211.56157,215.85045 -26.63126,0 0,-105.86549 0,-105.8654624 26.63126,0 26.63134,0 0,105.8654624 0,105.86549 -26.63134,0 z"
       style="fill:#a05a2c;stroke:#000000;stroke-width:9.45308304;stroke-linejoin:miter;stroke-miterlimit:4;stroke-opacity:0.98979594;stroke-dasharray:none;stroke-dashoffset:0" />
    <path
       inkscape:connector-curvature="0"
       id="path4168-3"
       d="m 271.48215,215.85045 -26.6314,0 0,-105.86549 0,-105.8654624 26.6314,0 26.63128,0 0,105.8654624 0,105.86549 -26.63128,0 z"
       style="fill:#a05a2c;stroke:#000000;stroke-width:9.45308304;stroke-linejoin:miter;stroke-miterlimit:4;stroke-opacity:0.98979594;stroke-dasharray:none;stroke-dashoffset:0" />
    <path
       inkscape:connector-curvature="0"
       id="path4170-0"
       d="m 331.40252,215.85045 -26.63118,0 0,-105.86549 0,-105.8654624 26.63118,0 26.63139,0 0,105.8654624 0,105.86549 -26.63139,0 z"
       style="fill:#a05a2c;stroke:#000000;stroke-width:9.45308304;stroke-linejoin:miter;stroke-miterlimit:4;stroke-opacity:0.98979594;stroke-dasharray:none;stroke-dashoffset:0" />
    <path
       inkscape:connector-curvature="0"
       id="path4172-2"
       d="m 391.32306,215.85045 -26.63136,0 0,-105.86549 0,-105.8654624 26.63136,0 26.63137,0 0,105.8654624 0,105.86549 -26.63137,0 z"
       style="fill:#a05a2c;stroke:#000000;stroke-width:9.45308304;stroke-linejoin:miter;stroke-miterlimit:4;stroke-opacity:0.98979594;stroke-dasharray:none;stroke-dashoffset:0" />
    <path
       inkscape:connector-curvature="0"
       id="path4178-1"
       d="m 449.57912,215.85045 -26.63135,0 0,-105.86549 0,-105.8654624 26.63135,0 26.63142,0 0,105.8654624 0,105.86549 -26.63142,0 z"
       style="fill:#a05a2c;stroke:#000000;stroke-width:9.45308304;stroke-linejoin:miter;stroke-miterlimit:4;stroke-opacity:0.98979594;stroke-dasharray:none;stroke-dashoffset:0" />
    <path
       inkscape:connector-curvature="0"
       id="path4180-6"
       d="m 509.49961,215.85045 -26.63131,0 0,-105.86549 0,-105.8654624 26.63131,0 26.63128,0 0,105.8654624 0,105.86549 -26.63128,0 z"
       style="fill:#a05a2c;stroke:#000000;stroke-width:9.45308304;stroke-linejoin:miter;stroke-miterlimit:4;stroke-opacity:0.98979594;stroke-dasharray:none;stroke-dashoffset:0" />
    <path
       inkscape:connector-curvature="0"
       id="path4182-4"
       d="m 569.42008,215.85045 -26.63134,0 0,-105.86549 0,-105.8654624 26.63134,0 26.63139,0 0,105.8654624 0,105.86549 -26.63139,0 z"
       style="fill:#a05a2c;stroke:#000000;stroke-width:9.45308304;stroke-linejoin:miter;stroke-miterlimit:4;stroke-opacity:0.98979594;stroke-dasharray:none;stroke-dashoffset:0" />
    <path
       inkscape:connector-curvature="0"
       id="path4184-1"
       d="m 629.34058,215.85045 -26.63132,0 0,-105.86549 0,-105.8654624 26.63132,0 26.63133,0 0,105.8654624 0,105.86549 -26.63133,0 z"
       style="fill:#a05a2c;stroke:#000000;stroke-width:9.45308304;stroke-linejoin:miter;stroke-miterlimit:4;stroke-opacity:0.98979594;stroke-dasharray:none;stroke-dashoffset:0" />
    <path
       inkscape:connector-curvature="0"
       id="path4186-1"
       d="m 689.26121,215.85045 -26.63143,0 0,-105.86549 0,-105.8654624 26.63143,0 26.6313,0 0,105.8654624 0,105.86549 -26.6313,0 z"
       style="fill:#a05a2c;stroke:#000000;stroke-width:9.45308304;stroke-linejoin:miter;stroke-miterlimit:4;stroke-opacity:0.98979594;stroke-dasharray:none;stroke-dashoffset:0" />
  </g>
</svg>
