<?xml version="1.0" encoding="UTF-8" standalone="no"?>
<!-- Generator: Adobe Illustrator 16.0.0, SVG Export Plug-In . SVG Version: 6.00 Build 0)  -->

<svg
   xmlns:osb="http://www.openswatchbook.org/uri/2009/osb"
   xmlns:dc="http://purl.org/dc/elements/1.1/"
   xmlns:cc="http://creativecommons.org/ns#"
   xmlns:rdf="http://www.w3.org/1999/02/22-rdf-syntax-ns#"
   xmlns:svg="http://www.w3.org/2000/svg"
   xmlns="http://www.w3.org/2000/svg"
   xmlns:xlink="http://www.w3.org/1999/xlink"
   xmlns:sodipodi="http://sodipodi.sourceforge.net/DTD/sodipodi-0.dtd"
   xmlns:inkscape="http://www.inkscape.org/namespaces/inkscape"
   version="1.1"
   x="0px"
   y="0px"
   width="29.106px"
   height="29.106px"
   viewBox="0 0 29.106 29.106"
   style="enable-background:new 0 0 29.106 29.106;"
   xml:space="preserve"
   id="svg2"
   inkscape:version="0.48.4 r9939"
   sodipodi:docname="white.svg"><metadata
     id="metadata14"><rdf:RDF><cc:Work
         rdf:about=""><dc:format>image/svg+xml</dc:format><dc:type
           rdf:resource="http://purl.org/dc/dcmitype/StillImage" /><dc:title /></cc:Work></rdf:RDF></metadata><defs
     id="defs12"><linearGradient
       inkscape:collect="always"
       id="linearGradient6363"><stop
         style="stop-color:#000000;stop-opacity:1;"
         offset="0"
         id="stop6365" /><stop
         style="stop-color:#000000;stop-opacity:0;"
         offset="1"
         id="stop6367" /></linearGradient><linearGradient
       id="linearGradient5238"><stop
         style="stop-color:#130000;stop-opacity:0;"
         offset="0"
         id="stop5240" /><stop
         style="stop-color:#000000;stop-opacity:0;"
         offset="1"
         id="stop5242" /></linearGradient><linearGradient
       id="linearGradient5226"
       osb:paint="gradient"><stop
         style="stop-color:#000000;stop-opacity:1;"
         offset="0"
         id="stop5228" /><stop
         style="stop-color:#000000;stop-opacity:0;"
         offset="1"
         id="stop5230" /></linearGradient><radialGradient
       inkscape:collect="always"
       xlink:href="#linearGradient5238"
       id="radialGradient5244"
       cx="14.553808"
       cy="14.539302"
       fx="14.553808"
       fy="14.539302"
       r="14.967979"
       gradientTransform="matrix(1,0,0,0.99867025,0,0.01933368)"
       gradientUnits="userSpaceOnUse" /><radialGradient
       inkscape:collect="always"
       xlink:href="#linearGradient6363"
       id="radialGradient6369"
       cx="14.55404"
       cy="14.537673"
       fx="14.55404"
       fy="14.537673"
       r="14.453567"
       gradientTransform="matrix(1,0,0,0.99957393,0,0.00619402)"
       gradientUnits="userSpaceOnUse" /></defs><sodipodi:namedview
     pagecolor="#ffffff"
     bordercolor="#666666"
     borderopacity="1"
     objecttolerance="10"
     gridtolerance="10"
     guidetolerance="10"
     inkscape:pageopacity="0"
     inkscape:pageshadow="2"
     inkscape:window-width="1440"
     inkscape:window-height="875"
     id="namedview10"
     showgrid="false"
     inkscape:zoom="8.6678765"
     inkscape:cx="8.0299784"
     inkscape:cy="18.786661"
     inkscape:window-x="0"
     inkscape:window-y="0"
     inkscape:window-maximized="1"
     inkscape:current-layer="svg2" /><g
     id="c147_full_moon"><g
       id="g5"><path
         style="fill:#000000;"
         d="M14.554,0C6.561,0,0,6.562,0,14.552c0,7.996,6.561,14.555,14.554,14.555    c7.996,0,14.553-6.559,14.553-14.555C29.106,6.562,22.55,0,14.554,0z"
         id="path7" /></g></g><g
     id="Capa_1" /><path
     style="fill:#540000;fill-opacity:1;stroke:url(#radialGradient5244);stroke-width:0.99999996999999996;stroke-miterlimit:4;stroke-dasharray:none;stroke-opacity:1"
     d="M 12.160389,28.827914 C 9.8113785,28.383204 7.8280551,27.525814 5.9983632,26.16407 0.91169695,22.378329 -1.1629617,15.857242 0.84080176,9.9527723 1.7524056,7.2665588 3.6865112,4.6452955 6.0470315,2.8968502 11.102277,-0.8475869 18.003648,-0.84362565 23.064155,2.906618 c 7.104438,5.2649598 7.991078,15.207441 1.925171,21.588197 -2.19901,2.31315 -4.939054,3.776217 -8.106618,4.328595 -1.242892,0.216742 -3.589428,0.218979 -4.722319,0.0045 l 0,2e-6 z"
     id="path2993"
     inkscape:connector-curvature="0" /><path
     style="fill:#550000;fill-opacity:1;stroke:url(#radialGradient6369);stroke-width:0.08720783999999999;stroke-miterlimit:4;stroke-opacity:1;stroke-dasharray:none"
     d="M 12.789898,28.867359 C 8.0130136,28.276458 3.6946043,25.141432 1.5760285,20.726451 0.64646148,18.789291 0.24933019,17.169696 0.17320789,15.005418 0.07290252,12.153577 0.70794542,9.6861253 2.1631884,7.273373 5.0462737,2.4932984 10.147726,-0.19989129 15.580549,0.1899991 c 6.722812,0.48246742 12.260036,5.6665077 13.257346,12.4117469 0.169944,1.149402 0.133487,3.166668 -0.0784,4.337953 -1.087922,6.013972 -5.789124,10.740482 -11.740019,11.80322 -0.938238,0.167555 -3.315597,0.237501 -4.22958,0.12444 l 0,0 z"
     id="path5414"
     inkscape:connector-curvature="0" /><path
     style="fill:#550000;fill-opacity:0.97847212;fill-rule:evenodd;stroke:#000000;stroke-width:0.01003706;stroke-miterlimit:4;stroke-opacity:1;stroke-dasharray:none"
     d="M 11.735508,28.677852 C 7.0046673,27.68402 2.9757587,24.312997 1.1906363,19.854866 -0.07230856,16.700811 -0.17349116,13.170228 0.90758945,9.9784594 2.6138549,4.9409046 7.2525054,1.0665965 12.495499,0.29996939 c 1.395375,-0.20403084 3.960079,-0.090869 5.311259,0.23434743 3.732752,0.89843838 6.879277,3.17365198 9.024965,6.52584178 1.955252,3.0546724 2.607872,7.2447884 1.697165,10.8965774 -1.406515,5.639909 -6.255831,10.048547 -11.919453,10.836285 -1.398166,0.194467 -3.653703,0.141169 -4.873927,-0.115169 l 0,0 z"
     id="path6371"
     inkscape:connector-curvature="0" /><path
     style="fill:#550000;fill-opacity:0.97847212;fill-rule:evenodd;stroke:#000000;stroke-width:0.01003706;stroke-miterlimit:4;stroke-opacity:1;stroke-dasharray:none"
     d="M 12.140658,28.683336 C 7.1133243,27.834974 2.4675551,23.791298 0.93374199,18.92884 0.45721893,17.418178 0.27721452,16.216152 0.27721452,14.544711 0.27721452,10.542725 1.7173224,7.1472588 4.5955709,4.3629493 6.4855736,2.5346316 8.7407099,1.2625762 11.18752,0.64462631 12.381543,0.34307225 12.725123,0.305405 14.277954,0.30581735 c 0.988918,2.6304e-4 2.203903,0.0745589 2.799802,0.17120797 4.645247,0.75341348 8.98087,4.27641978 10.77398,8.75463538 0.673281,1.6814893 0.958905,3.2420823 0.963438,5.2640193 0.0057,2.552316 -0.415646,4.35819 -1.518629,6.50847 -2.009058,3.916687 -5.840953,6.81694 -10.065551,7.618333 -1.008121,0.191237 -4.098741,0.228185 -5.090336,0.06085 l 0,0 z"
     id="path6373"
     inkscape:connector-curvature="0" /><path
     style="fill:#550000;fill-opacity:0.97847212;fill-rule:evenodd;stroke:#000000;stroke-width:0.01003706;stroke-miterlimit:4;stroke-opacity:1;stroke-dasharray:none"
     d="M 11.172804,28.410669 C 8.7010682,27.756886 6.6681306,26.600057 4.6917059,24.722646 2.4771927,22.619076 0.92224802,19.68404 0.50289279,16.816052 0.2977675,15.413192 0.4197067,12.402704 0.73239536,11.149993 1.353805,8.6604675 2.3924324,6.7783695 4.1834715,4.8962938 6.2835643,2.6894556 8.9321034,1.1757456 11.719101,0.58948251 c 1.075358,-0.22620853 4.242184,-0.22490013 5.544995,0.002291 3.296908,0.57493279 6.600527,2.68433199 8.826418,5.63577189 1.167674,1.5482876 2.108445,3.7353763 2.464757,5.7300276 0.191708,1.073182 0.190318,4.17204 -0.0023,5.191583 -0.328391,1.737962 -1.139761,3.728573 -2.122561,5.207485 -1.846525,2.778643 -4.802241,4.945415 -8.097995,5.936466 -0.966022,0.290487 -1.215036,0.315074 -3.576424,0.353105 -2.382594,0.03837 -2.602139,0.02394 -3.583158,-0.235543 l 2e-6,0 z"
     id="path6375"
     inkscape:connector-curvature="0" /><path
     style="fill:#550000;fill-opacity:0.97847212;fill-rule:evenodd;stroke:#000000;stroke-width:0.01003706;stroke-miterlimit:4;stroke-opacity:1;stroke-dasharray:none"
     d="M 10.891117,28.275582 C 8.4389603,27.539125 6.5622809,26.413216 4.6525074,24.532741 2.5753938,22.487493 1.3217915,20.274927 0.73055733,17.61063 0.4633552,16.406529 0.43106066,13.572151 0.66680437,12.015257 0.96913254,10.018628 1.8563591,7.8918239 3.0165879,6.3825032 4.9395043,3.8810163 7.4017723,2.0556625 10.126877,1.1114308 c 1.514942,-0.52491786 2.25019,-0.60709719 4.895079,-0.54712745 2.166802,0.0491297 2.483456,0.0828174 3.425799,0.36445954 2.869548,0.85763431 5.675294,2.81674191 7.49556,5.23376331 1.696168,2.2522373 2.573561,4.7527818 2.681029,7.6408488 0.105235,2.828052 -0.269137,4.674347 -1.421364,7.009764 -1.709978,3.465909 -4.795799,6.076247 -8.701519,7.360737 -0.943373,0.310251 -1.072974,0.322474 -3.803183,0.358708 -2.752262,0.03653 -2.852293,0.02977 -3.807161,-0.257002 l 0,0 z"
     id="path6377"
     inkscape:connector-curvature="0" /><path
     style="fill:#550000;fill-opacity:0.97847212;fill-rule:evenodd;stroke:#000000;stroke-width:0.01003706;stroke-miterlimit:4;stroke-opacity:1;stroke-dasharray:none"
     d="M 10.371959,28.016948 C 7.933507,27.157452 6.5437552,26.279165 4.640184,24.394618 2.823317,22.595909 1.7109899,20.775952 1.0157333,18.464402 0.73910675,17.544689 0.70127729,17.202904 0.65308209,15.187891 0.59313082,12.681364 0.73625295,11.464713 1.2761995,9.8909069 1.9258846,7.99724 2.7656654,6.6290851 4.2239145,5.0885456 6.247387,2.9508865 8.6031144,1.5276483 11.190946,0.87933827 c 0.925325,-0.23181479 1.215448,-0.24749424 3.72634,-0.20138644 2.598306,0.047713 2.767757,0.0647178 3.703522,0.37165847 3.620738,1.1876403 6.717921,3.768802 8.428545,7.0242672 1.067036,2.0306615 1.492187,3.8799585 1.492779,6.4932165 5.76e-4,2.560638 -0.292115,3.861496 -1.370711,6.092053 -1.677765,3.469646 -4.449295,5.899199 -8.377561,7.343862 l -1.038316,0.381853 -3.057266,0.0397 -3.057265,0.0397 -1.269054,-0.447311 z"
     id="path6379"
     inkscape:connector-curvature="0" /><path
     style="fill:#550000;fill-opacity:0.97847212;fill-rule:evenodd;stroke:#000000;stroke-width:0.01003706;stroke-miterlimit:4;stroke-opacity:1;stroke-dasharray:none"
     d="M 10.160563,27.868077 C 7.7900595,26.973906 6.4756667,26.116074 4.6314684,24.259541 2.9460515,22.562852 1.9782339,21.016501 1.1921605,18.764315 0.8131114,17.678298 0.80918869,17.645498 0.76153278,15.163538 0.73131481,13.589761 0.76243185,12.367646 0.84525065,11.875536 1.1467259,10.084169 2.0124986,8.0025469 3.0468142,6.582202 3.7664238,5.5940184 5.7330475,3.6873377 6.7511782,2.9907476 7.8582718,2.2332903 9.1692154,1.5789269 10.429643,1.1546251 l 0.980633,-0.33011338 3.172634,0 c 3.031967,0 3.20844,0.0121047 3.980213,0.27301148 3.866668,1.3071713 6.904988,3.9231263 8.619728,7.4214776 0.915281,1.8673242 1.243892,3.4813602 1.244122,6.1107412 2.31e-4,2.628599 -0.2968,3.940904 -1.380314,6.098339 -1.670512,3.326234 -4.128348,5.5337 -7.838416,7.039947 l -1.352883,0.549254 -3.145517,0.04015 -3.145517,0.04015 -1.403763,-0.529509 z"
     id="path6381"
     inkscape:connector-curvature="0" /><path
     style="fill:#550000;fill-opacity:0.97847212;fill-rule:evenodd;stroke:#000000;stroke-width:0.01003706;stroke-miterlimit:4;stroke-opacity:1;stroke-dasharray:none"
     d="M 10.120172,27.785221 C 7.7590414,26.830698 6.4864082,25.997841 4.7770722,24.288505 3.1418105,22.653243 2.1734957,21.169465 1.360208,19.052736 L 0.91693997,17.899051 0.87492509,15.072523 C 0.83035716,12.074239 0.87022602,11.691073 1.3971087,10.053993 2.0443724,8.0428755 2.9012563,6.6711539 4.536435,5.0284781 6.4301038,3.1261271 7.9175519,2.1518592 10.246681,1.288308 l 1.143775,-0.42406767 3.355596,0.0438352 c 3.326165,0.0434507 3.362448,0.0465642 4.136679,0.35497427 0.947939,0.3776059 2.48817,1.1450393 3.131001,1.5600488 2.293523,1.4806888 4.379177,3.9335119 5.371455,6.3170744 0.686093,1.648069 0.834225,2.441477 0.896895,4.803868 0.0827,3.117345 -0.135054,4.321265 -1.171018,6.4744 -1.696081,3.525111 -4.125178,5.718028 -8.204273,7.406574 l -1.007321,0.416981 -3.186913,0.0557 -3.186913,0.0557 -1.405472,-0.568183 z"
     id="path6383"
     inkscape:connector-curvature="0" /><path
     style="fill:#550000;fill-opacity:0.97847212;fill-rule:evenodd;stroke:#000000;stroke-width:0.01003706;stroke-miterlimit:4;stroke-opacity:1;stroke-dasharray:none"
     d="M 9.9874538,27.649768 C 7.5162409,26.582734 6.5980557,25.976199 4.8990373,24.288459 3.6183634,23.016286 2.7387597,21.812141 2.0267416,20.356394 0.90631096,18.065631 0.94514538,18.282303 0.99131548,14.579356 L 1.0319167,11.323046 1.46848,10.053993 C 2.3228309,7.5704651 3.5838363,5.8156801 5.9085842,3.8752495 7.2562543,2.7503704 8.3424533,2.1132049 10.086064,1.424735 l 1.329264,-0.52486375 3.45853,0.0891107 3.458528,0.0891108 1.095429,0.4890571 c 2.164937,0.9665431 3.249948,1.6700789 4.700193,3.0476696 1.700105,1.6149335 3.009867,3.7148554 3.68035,5.9006476 0.311381,1.015114 0.31863,1.104057 0.324425,3.980213 0.0068,3.388564 -0.02814,3.582527 -1.030508,5.717001 -1.673623,3.563852 -3.996974,5.726928 -8.019993,7.466735 l -1.21137,0.523872 -3.204552,0.04154 -3.204552,0.04154 -1.4743542,-0.636605 0,0 z"
     id="path6385"
     inkscape:connector-curvature="0" /><path
     style="fill:#550000;fill-opacity:0.97847212;fill-rule:evenodd;stroke:#000000;stroke-width:0.01003706;stroke-miterlimit:4;stroke-opacity:1;stroke-dasharray:none"
     d="M 9.9681694,27.578517 C 8.056304,26.726067 6.9448408,26.05195 5.8191901,25.06211 4.0053882,23.467144 2.9645853,22.094541 1.8598855,19.840612 L 1.1424783,18.37688 1.1076024,14.843514 1.0727265,11.310147 1.4685412,10.216691 C 2.279532,7.9762936 3.3190946,6.3578093 4.9184745,4.8455256 6.6172435,3.2392651 7.8732136,2.4190595 10.02806,1.5087343 l 1.266847,-0.53518596 3.51874,0.0797988 3.518739,0.079799 1.269054,0.5874954 c 0.69798,0.3231224 1.606507,0.7925036 2.018949,1.0430691 2.719938,1.6524075 4.864586,4.2914478 6.018292,7.4056504 l 0.38466,1.038317 0,3.230318 c 0,3.686545 -0.02649,3.831615 -1.086014,5.94748 -1.626492,3.248095 -3.456775,5.039398 -6.913609,6.766363 -1.754918,0.876721 -1.779532,0.884853 -2.941897,0.971923 -0.644696,0.04829 -2.184532,0.09004 -3.421859,0.09278 l -2.249686,0.005 -1.4421066,-0.642998 0,2e-6 z"
     id="path6387"
     inkscape:connector-curvature="0" /><path
     style="fill:#550000;fill-opacity:0.97847212;fill-rule:evenodd;stroke:#000000;stroke-width:0.01003706;stroke-miterlimit:4;stroke-opacity:1;stroke-dasharray:none"
     d="M 9.3336426,27.192743 C 5.758501,25.42657 3.8862153,23.576193 1.9727664,19.918 l -0.7543061,-1.442106 -0.02637,-3.691793 -0.02637,-3.691792 0.3709246,-0.922948 C 2.4440458,7.9115322 3.4306787,6.3914774 4.9107218,4.9710932 6.6344222,3.3168733 7.9564979,2.4599047 10.395025,1.4161717 l 0.912196,-0.3904364 3.538145,0.08473 3.538146,0.08473 1.416544,0.6976496 c 2.053692,1.0114461 3.107469,1.7432501 4.419615,3.0692363 1.559914,1.5763664 2.512082,3.0652179 3.404001,5.3226488 l 0.364661,0.922948 -0.05284,3.345686 c -0.05941,3.761459 -0.0744,3.848208 -0.976798,5.65163 -1.236212,2.470544 -2.827158,4.349731 -4.761462,5.624117 -1.527396,1.006301 -3.637656,2.01683 -4.505851,2.157692 -0.408879,0.06634 -2.041312,0.119993 -3.627629,0.119229 l -2.884213,-0.0014 -1.8458964,-0.911901 0,-4e-6 z"
     id="path6389"
     inkscape:connector-curvature="0" /><path
     style="fill:#550000;fill-opacity:0.97847212;fill-rule:evenodd;stroke:#000000;stroke-width:0.01003706;stroke-miterlimit:4;stroke-opacity:1;stroke-dasharray:none"
     d="M 9.5643796,27.234811 C 5.7762421,25.324046 3.9834069,23.567714 1.9674233,19.79253 L 1.3214294,18.582825 1.2428812,14.893514 1.1643329,11.204201 1.6533819,10.052254 C 2.6245352,7.7647185 3.5156118,6.4161576 4.9770163,5.0222457 6.6573385,3.4195263 7.7673575,2.678189 9.990633,1.6738518 l 1.304274,-0.5891898 3.576424,0.081122 3.576424,0.081122 1.442106,0.7581223 c 0.793159,0.4169673 1.805517,0.9944679 2.249686,1.2833347 0.963557,0.6266528 2.787758,2.4226026 3.558102,3.502999 0.631592,0.8857975 1.528386,2.5974 1.963599,3.747681 l 0.296631,0.784003 -0.103093,3.345687 c -0.116106,3.768002 -0.158642,4.004 -1.008522,5.595373 -1.740467,3.258969 -3.409084,4.94133 -6.52285,6.576578 -0.587444,0.308506 -1.466602,0.694163 -1.953685,0.857016 -0.866533,0.28972 -0.954735,0.296069 -4.095582,0.294856 l -3.209977,-0.0012 -1.4997904,-0.756505 z"
     id="path6391"
     inkscape:connector-curvature="0" /><path
     style="fill:#550000;fill-opacity:0.97847212;fill-rule:evenodd;stroke:#000000;stroke-width:0.01003706;stroke-miterlimit:4;stroke-opacity:1;stroke-dasharray:none"
     d="M 12.390908,27.878427 10.833433,27.820743 9.5643796,27.169544 C 5.8887476,25.28344 3.9697143,23.386319 1.9373268,19.629579 L 1.3756,18.591262 1.2970671,14.903012 1.2185342,11.21476 1.5110888,10.519682 C 2.6116621,7.904836 3.5730179,6.4453907 5.2111715,4.9025439 6.5825394,3.6109614 7.5252771,2.9722254 9.4490111,2.0312667 L 11.294907,1.128381 14.871331,1.217164 c 3.09183,0.076753 3.631136,0.1167122 3.980214,0.294908 2.900132,1.4804483 4.665756,2.7646922 6.062185,4.4093908 0.892519,1.0511994 1.333633,1.7591172 2.17367,3.4883955 l 0.705204,1.4517137 0.03869,1.226512 c 0.02128,0.674582 -0.01628,2.310132 -0.08346,3.634555 -0.135293,2.667219 -0.273817,3.298696 -1.021554,4.656835 -1.711548,3.108744 -3.611322,4.974859 -6.568047,6.451674 -1.84192,0.919997 -2.252143,1.020147 -4.363951,1.065405 -1.015243,0.02176 -2.54676,0.0136 -3.403371,-0.01813 z"
     id="path6393"
     inkscape:connector-curvature="0" /><path
     style="fill:#550000;fill-opacity:0.97847212;fill-rule:evenodd;stroke:#000000;stroke-width:0.01003706;stroke-miterlimit:4;stroke-opacity:1;stroke-dasharray:none"
     d="M 11.583329,27.778513 C 10.664247,27.695222 10.063213,27.438036 8.1650467,26.315808 5.4076158,24.68557 3.415241,22.457158 1.7146812,19.101265 L 1.4258601,18.531304 1.3995378,14.696438 1.3732154,10.861572 2.1539373,9.2825689 C 3.0934084,7.3824967 3.9264806,6.2322761 5.3226408,4.9075481 6.617914,3.6785453 7.506837,3.082186 9.5949084,2.0413762 l 1.6311896,-0.8130747 1.649563,0.00655 c 0.90726,0.0036 2.563625,0.048741 3.680809,0.1003071 l 2.031244,0.093757 1.026022,0.5553684 c 2.5265,1.3675533 4.511966,2.960522 5.764869,4.6252395 0.359866,0.4781516 1.037256,1.6100128 1.50531,2.5152471 l 0.851005,1.6458804 -10e-4,2.35283 c -0.0012,2.678906 -0.150514,4.716099 -0.413647,5.640834 -0.452419,1.589941 -2.242767,4.316066 -3.713506,5.654477 -1.484808,1.351215 -3.92843,2.760686 -5.505132,3.175336 -0.773362,0.203383 -4.991917,0.322715 -6.51832,0.184385 l 5.2e-5,0 z"
     id="path6395"
     inkscape:connector-curvature="0" /><path
     style="fill:#550000;fill-opacity:0.97847212;fill-rule:evenodd;stroke:#000000;stroke-width:0.01003706;stroke-miterlimit:4;stroke-opacity:1;stroke-dasharray:none"
     d="M 10.891505,27.577496 C 9.7646239,27.274731 7.4545276,25.907418 5.9389857,24.646171 4.6112815,23.541244 3.0821696,21.546435 1.9608863,19.456526 l -0.5261314,-0.980632 -0.00193,-3.85477 -0.00193,-3.854771 0.766844,-1.452181 C 3.224959,7.3689226 3.7126316,6.6719308 4.9206876,5.4224846 6.2362819,4.0618155 7.5130808,3.1620157 9.6077126,2.1193929 l 1.6871944,-0.8398171 3.588021,0.078589 c 4.052732,0.088768 3.584918,-0.012128 5.611424,1.2102371 1.532598,0.9244457 2.661271,1.7953596 3.753874,2.8965877 1.066536,1.0749539 1.655422,1.9356961 2.758482,4.0319172 l 0.751648,1.4284092 -0.121442,3.371499 c -0.144072,3.99977 -0.265714,4.63643 -1.195233,6.255712 -1.633199,2.845137 -3.183876,4.401476 -5.859609,5.881001 -2.073501,1.146525 -3.010016,1.324849 -6.92211,1.318053 -1.508783,-0.0026 -2.320174,-0.05364 -2.768457,-0.174085 z"
     id="path6397"
     inkscape:connector-curvature="0" /><path
     style="fill:#ffffff;fill-opacity:0.97847211999999995;fill-rule:evenodd;stroke:#000000;stroke-width:0.01003706000000000;stroke-miterlimit:4;stroke-opacity:1;stroke-dasharray:none"
     d="M 11.017495,27.528682 C 10.344392,27.388557 8.9098573,26.650474 7.4877464,25.71259 5.4132195,24.344437 3.4662474,22.097782 1.9662017,19.341158 L 1.5581384,18.591262 1.5383329,14.646763 1.5185273,10.702266 2.1810688,9.455181 C 3.1604882,7.6116456 3.7895308,6.7129708 4.9230686,5.5378531 6.1917775,4.2226061 7.4605026,3.3141241 9.6034918,2.1863949 l 1.6692852,-0.8784468 3.590828,0.1165495 c 4.106536,0.1332882 3.820915,0.067889 5.834415,1.3359147 3.133236,1.9731938 4.55589,3.5239499 6.320653,6.8897905 l 0.69563,1.3267382 -0.107347,2.768844 c -0.185886,4.794617 -0.385388,5.585559 -2.036988,8.075796 -1.663337,2.507932 -4.368028,4.590786 -7.122213,5.484742 -0.743251,0.241245 -1.051109,0.264753 -3.864845,0.295135 -1.681496,0.01816 -3.285933,-0.01459 -3.565415,-0.07278 z"
     id="path6399"
     inkscape:connector-curvature="0" /></svg>