<?xml version="1.0" encoding="UTF-8" standalone="no"?>
<!-- Generator: Adobe Illustrator 16.0.0, SVG Export Plug-In . SVG Version: 6.00 Build 0)  -->

<svg
   xmlns:dc="http://purl.org/dc/elements/1.1/"
   xmlns:cc="http://creativecommons.org/ns#"
   xmlns:rdf="http://www.w3.org/1999/02/22-rdf-syntax-ns#"
   xmlns:svg="http://www.w3.org/2000/svg"
   xmlns="http://www.w3.org/2000/svg"
   xmlns:sodipodi="http://sodipodi.sourceforge.net/DTD/sodipodi-0.dtd"
   xmlns:inkscape="http://www.inkscape.org/namespaces/inkscape"
   version="1.1"
   x="0px"
   y="0px"
   width="29.106px"
   height="29.106px"
   viewBox="0 0 29.106 29.106"
   style="enable-background:new 0 0 29.106 29.106;"
   xml:space="preserve"
   id="svg2"
   inkscape:version="0.48.4 r9939"
   sodipodi:docname="black.svg"><metadata
     id="metadata14"><rdf:RDF><cc:Work
         rdf:about=""><dc:format>image/svg+xml</dc:format><dc:type
           rdf:resource="http://purl.org/dc/dcmitype/StillImage" /><dc:title></dc:title></cc:Work></rdf:RDF></metadata><defs
     id="defs12" /><sodipodi:namedview
     pagecolor="#ffffff"
     bordercolor="#666666"
     borderopacity="1"
     objecttolerance="10"
     gridtolerance="10"
     guidetolerance="10"
     inkscape:pageopacity="0"
     inkscape:pageshadow="2"
     inkscape:window-width="1440"
     inkscape:window-height="875"
     id="namedview10"
     showgrid="false"
     inkscape:zoom="8.1082936"
     inkscape:cx="14.553"
     inkscape:cy="14.553"
     inkscape:window-x="0"
     inkscape:window-y="0"
     inkscape:window-maximized="1"
     inkscape:current-layer="svg2" /><g
     id="c147_full_moon"><g
       id="g5"><path
         style="fill:#000000;"
         d="M14.554,0C6.561,0,0,6.562,0,14.552c0,7.996,6.561,14.555,14.554,14.555    c7.996,0,14.553-6.559,14.553-14.555C29.106,6.562,22.55,0,14.554,0z"
         id="path7" /></g></g><g
     id="Capa_1" /><path
     style="fill:#f9f9f9;fill-opacity:1"
     d="M 12.160389,28.827914 C 9.8113785,28.383204 7.8280551,27.525814 5.9983632,26.16407 0.91169695,22.378329 -1.1629617,15.857242 0.84080176,9.9527723 1.7524056,7.2665588 3.6865112,4.6452955 6.0470315,2.8968502 11.102277,-0.8475869 18.003648,-0.84362565 23.064155,2.906618 c 7.104438,5.2649598 7.991078,15.207441 1.925171,21.588197 -2.19901,2.31315 -4.939054,3.776217 -8.106618,4.328595 -1.242892,0.216742 -3.589428,0.218979 -4.722319,0.0045 l 0,2e-6 z"
     id="path2993"
     inkscape:connector-curvature="0" /></svg>